<svg version="1.0" xmlns="http://www.w3.org/2000/svg"
 width="20px" height="20px" viewBox="0 0 16.000000 16.000000"
 preserveAspectRatio="xMidYMid meet">

<g transform="translate(0.000000,16.000000) scale(0.100000,-0.100000)"
fill="#ffffff" stroke="none">
<path d="M40 112 c0 -41 4 -51 28 -68 15 -11 37 -18 50 -16 19 3 22 9 22 54
l0 51 -34 -6 c-28 -4 -35 -2 -39 14 -10 37 -27 19 -27 -29z"/>
<path d="M22 88 c-2 -54 0 -58 21 -58 20 1 20 2 5 13 -10 8 -18 32 -21 58 -3
40 -4 39 -5 -13z"/>
<path d="M2 69 l-2 -56 40 -6 c22 -3 58 -3 80 0 l40 6 -2 51 -2 51 -3 -46 c-4
-44 -6 -47 -38 -52 -19 -3 -51 -3 -70 0 -33 5 -34 7 -38 57 l-3 51 -2 -56z"/>
</g>
</svg>